<svg xmlns="http://www.w3.org/2000/svg" viewBox="0 0 256 256">
  <path d="M128 20L40 60v60c0 55 40 100 88 116 48-16 88-61 88-116V60L128 20z" fill="#2d5016"/>
  <path d="M128 35L60 68v52c0 45 33 82 68 95 35-13 68-50 68-95V68L128 35z" fill="#4a7c2c"/>
  <circle cx="128" cy="128" r="45" fill="#fff"/>
  <circle cx="128" cy="128" r="38" fill="#2d5016"/>
  <circle cx="128" cy="128" r="12" fill="#fff"/>
  <rect x="126" y="90" width="4" height="20" fill="#fff" rx="2"/>
  <rect x="126" y="146" width="4" height="20" fill="#fff" rx="2"/>
  <rect x="90" y="126" width="20" height="4" fill="#fff" rx="2"/>
  <rect x="146" y="126" width="20" height="4" fill="#fff" rx="2"/>
</svg>